<mxfile host="app.diagrams.net" modified="2023-02-22T10:21:45.041Z" agent="5.0 (Windows NT 10.0; Win64; x64) AppleWebKit/537.36 (KHTML, like Gecko) Chrome/110.0.0.0 Safari/537.36" version="20.8.22" etag="lThlWsYAn3WcCkZgXpUX" type="github">
  <diagram id="lt2_dRjbB8_fMqw9_ww5" name="Page-1">
    <mxGraphModel dx="1728" dy="937" grid="1" gridSize="10" guides="1" tooltips="1" connect="1" arrows="1" fold="1" page="1" pageScale="1" pageWidth="850" pageHeight="1100" math="0" shadow="0">
      <root>
        <mxCell id="0" />
        <mxCell id="1" parent="0" />
        <mxCell id="39" value="ECODANENCODER" style="rounded=0;whiteSpace=wrap;html=1;verticalAlign=bottom;" parent="1" vertex="1">
          <mxGeometry x="470" y="520" width="160" height="120" as="geometry" />
        </mxCell>
        <mxCell id="11" value="ECODANCOMMANDQUEUE" style="rounded=0;whiteSpace=wrap;html=1;verticalAlign=top;" parent="1" vertex="1">
          <mxGeometry x="210" y="680" width="420" height="239" as="geometry" />
        </mxCell>
        <mxCell id="62" value="MQTTService" style="rounded=0;whiteSpace=wrap;html=1;verticalAlign=top;" parent="1" vertex="1">
          <mxGeometry x="210" y="269" width="420" height="150" as="geometry" />
        </mxCell>
        <mxCell id="50" value="ECODANDECODER" style="rounded=0;whiteSpace=wrap;html=1;verticalAlign=bottom;" parent="1" vertex="1">
          <mxGeometry x="210" y="480" width="210" height="160" as="geometry" />
        </mxCell>
        <mxCell id="7" value="Utilities" style="rounded=0;whiteSpace=wrap;html=1;rotation=0;horizontal=1;verticalAlign=top;" parent="1" vertex="1">
          <mxGeometry x="10" y="350" width="100" height="530" as="geometry" />
        </mxCell>
        <mxCell id="9" value="Ecodan" style="rounded=0;whiteSpace=wrap;html=1;" parent="1" vertex="1">
          <mxGeometry x="350" y="959" width="120" height="60" as="geometry" />
        </mxCell>
        <mxCell id="10" style="edgeStyle=orthogonalEdgeStyle;rounded=0;orthogonalLoop=1;jettySize=auto;html=1;entryX=0.5;entryY=0;entryDx=0;entryDy=0;startArrow=classic;startFill=1;exitX=0.5;exitY=1;exitDx=0;exitDy=0;" parent="1" source="64" target="9" edge="1">
          <mxGeometry relative="1" as="geometry" />
        </mxCell>
        <mxCell id="65" value="" style="edgeStyle=none;html=1;" parent="1" source="11" target="9" edge="1">
          <mxGeometry relative="1" as="geometry" />
        </mxCell>
        <mxCell id="14" value="MQTT reporter" style="rounded=0;whiteSpace=wrap;html=1;fillColor=#1ba1e2;fontColor=#ffffff;strokeColor=#006EAF;" parent="1" vertex="1">
          <mxGeometry x="237.5" y="359" width="95" height="29" as="geometry" />
        </mxCell>
        <mxCell id="26" value="Console (telnet)" style="rounded=0;whiteSpace=wrap;html=1;" parent="1" vertex="1">
          <mxGeometry x="31.250000000000004" y="662.81" width="57.5" height="40" as="geometry" />
        </mxCell>
        <mxCell id="30" value="Debug" style="rounded=0;whiteSpace=wrap;html=1;" parent="1" vertex="1">
          <mxGeometry x="31.250000000000004" y="570.62" width="57.5" height="40" as="geometry" />
        </mxCell>
        <mxCell id="78" style="edgeStyle=none;html=1;exitX=0.5;exitY=0;exitDx=0;exitDy=0;" parent="1" source="pMU-Be9IyisstLN4BQNU-86" target="77" edge="1">
          <mxGeometry relative="1" as="geometry" />
        </mxCell>
        <mxCell id="pMU-Be9IyisstLN4BQNU-87" style="edgeStyle=orthogonalEdgeStyle;rounded=0;orthogonalLoop=1;jettySize=auto;html=1;entryX=0.5;entryY=1;entryDx=0;entryDy=0;" edge="1" parent="1" source="35" target="pMU-Be9IyisstLN4BQNU-86">
          <mxGeometry relative="1" as="geometry" />
        </mxCell>
        <mxCell id="35" value="PopRxMsg" style="rounded=0;whiteSpace=wrap;html=1;fillColor=#1ba1e2;fontColor=#ffffff;strokeColor=#006EAF;" parent="1" vertex="1">
          <mxGeometry x="245" y="720" width="80" height="40" as="geometry" />
        </mxCell>
        <mxCell id="46" style="edgeStyle=none;html=1;exitX=0.5;exitY=1;exitDx=0;exitDy=0;" parent="1" source="pMU-Be9IyisstLN4BQNU-83" target="40" edge="1">
          <mxGeometry relative="1" as="geometry" />
        </mxCell>
        <mxCell id="pMU-Be9IyisstLN4BQNU-79" style="edgeStyle=orthogonalEdgeStyle;rounded=0;orthogonalLoop=1;jettySize=auto;html=1;" edge="1" parent="1" source="40" target="66">
          <mxGeometry relative="1" as="geometry" />
        </mxCell>
        <mxCell id="40" value="TxQ" style="shape=cylinder3;whiteSpace=wrap;html=1;boundedLbl=1;backgroundOutline=1;size=15;" parent="1" vertex="1">
          <mxGeometry x="520" y="779" width="60" height="61" as="geometry" />
        </mxCell>
        <mxCell id="51" style="edgeStyle=none;html=1;entryX=0.5;entryY=1;entryDx=0;entryDy=0;" parent="1" source="41" target="35" edge="1">
          <mxGeometry relative="1" as="geometry" />
        </mxCell>
        <mxCell id="41" value="RxQ" style="shape=cylinder3;whiteSpace=wrap;html=1;boundedLbl=1;backgroundOutline=1;size=15;" parent="1" vertex="1">
          <mxGeometry x="255" y="779" width="60" height="61" as="geometry" />
        </mxCell>
        <mxCell id="56" style="edgeStyle=none;html=1;entryX=0.25;entryY=0;entryDx=0;entryDy=0;" parent="1" source="47" edge="1" target="pMU-Be9IyisstLN4BQNU-84">
          <mxGeometry relative="1" as="geometry">
            <mxPoint x="500" y="550" as="targetPoint" />
          </mxGeometry>
        </mxCell>
        <mxCell id="47" value="MQTT.subscribe" style="rounded=0;whiteSpace=wrap;html=1;" parent="1" vertex="1">
          <mxGeometry x="470" y="359" width="110" height="29" as="geometry" />
        </mxCell>
        <mxCell id="55" style="edgeStyle=none;html=1;exitX=0.5;exitY=1;exitDx=0;exitDy=0;entryX=0.75;entryY=0;entryDx=0;entryDy=0;" parent="1" source="49" target="pMU-Be9IyisstLN4BQNU-84" edge="1">
          <mxGeometry relative="1" as="geometry" />
        </mxCell>
        <mxCell id="49" value="State Machine" style="rounded=0;whiteSpace=wrap;html=1;fillColor=#1ba1e2;fontColor=#ffffff;strokeColor=#006EAF;" parent="1" vertex="1">
          <mxGeometry x="550" y="460" width="80" height="30" as="geometry" />
        </mxCell>
        <mxCell id="61" value="Timer&lt;br&gt;Callback" style="rounded=0;whiteSpace=wrap;html=1;fillColor=#1ba1e2;fontColor=#ffffff;strokeColor=#006EAF;" parent="1" vertex="1">
          <mxGeometry x="31.250000000000004" y="520" width="50" height="40" as="geometry" />
        </mxCell>
        <mxCell id="63" value="MQTTclient" style="rounded=0;whiteSpace=wrap;html=1;" parent="1" vertex="1">
          <mxGeometry x="295" y="300" width="250" height="30" as="geometry" />
        </mxCell>
        <mxCell id="pMU-Be9IyisstLN4BQNU-81" style="edgeStyle=orthogonalEdgeStyle;rounded=0;orthogonalLoop=1;jettySize=auto;html=1;entryX=1;entryY=0.5;entryDx=0;entryDy=0;" edge="1" parent="1" source="64" target="67">
          <mxGeometry relative="1" as="geometry" />
        </mxCell>
        <mxCell id="64" value="Serial" style="rounded=0;whiteSpace=wrap;html=1;" parent="1" vertex="1">
          <mxGeometry x="375" y="869" width="70" height="30" as="geometry" />
        </mxCell>
        <mxCell id="pMU-Be9IyisstLN4BQNU-80" style="edgeStyle=orthogonalEdgeStyle;rounded=0;orthogonalLoop=1;jettySize=auto;html=1;entryX=1;entryY=0.5;entryDx=0;entryDy=0;" edge="1" parent="1" source="66" target="64">
          <mxGeometry relative="1" as="geometry" />
        </mxCell>
        <mxCell id="66" value="WriteSerial" style="rounded=0;whiteSpace=wrap;html=1;fillColor=#1ba1e2;fontColor=#ffffff;strokeColor=#006EAF;" parent="1" vertex="1">
          <mxGeometry x="515" y="869" width="70" height="30" as="geometry" />
        </mxCell>
        <mxCell id="pMU-Be9IyisstLN4BQNU-82" style="edgeStyle=orthogonalEdgeStyle;rounded=0;orthogonalLoop=1;jettySize=auto;html=1;" edge="1" parent="1" source="67" target="41">
          <mxGeometry relative="1" as="geometry" />
        </mxCell>
        <mxCell id="67" value="ReadSerial" style="rounded=0;whiteSpace=wrap;html=1;" parent="1" vertex="1">
          <mxGeometry x="250" y="869" width="70" height="30" as="geometry" />
        </mxCell>
        <mxCell id="68" value="OTA" style="rounded=0;whiteSpace=wrap;html=1;" parent="1" vertex="1">
          <mxGeometry x="31.250000000000004" y="818.81" width="57.5" height="40" as="geometry" />
        </mxCell>
        <mxCell id="69" value="Wifi&lt;br&gt;Manager" style="rounded=0;whiteSpace=wrap;html=1;" parent="1" vertex="1">
          <mxGeometry x="31.25" y="470" width="57.5" height="40" as="geometry" />
        </mxCell>
        <mxCell id="70" value="NTP" style="rounded=0;whiteSpace=wrap;html=1;" parent="1" vertex="1">
          <mxGeometry x="31.250000000000004" y="770" width="57.5" height="40" as="geometry" />
        </mxCell>
        <mxCell id="71" value="Log" style="rounded=0;whiteSpace=wrap;html=1;" parent="1" vertex="1">
          <mxGeometry x="31.250000000000004" y="620" width="57.5" height="40" as="geometry" />
        </mxCell>
        <mxCell id="72" value="Config" style="rounded=0;whiteSpace=wrap;html=1;" parent="1" vertex="1">
          <mxGeometry x="27.5" y="420" width="57.5" height="40" as="geometry" />
        </mxCell>
        <mxCell id="74" value="Secrets" style="rounded=0;whiteSpace=wrap;html=1;" parent="1" vertex="1">
          <mxGeometry x="27.5" y="370" width="57.5" height="40" as="geometry" />
        </mxCell>
        <mxCell id="75" value="Webserver" style="rounded=0;whiteSpace=wrap;html=1;" parent="1" vertex="1">
          <mxGeometry x="31.250000000000004" y="711" width="57.5" height="40" as="geometry" />
        </mxCell>
        <mxCell id="79" style="edgeStyle=none;html=1;" parent="1" source="77" target="14" edge="1">
          <mxGeometry relative="1" as="geometry" />
        </mxCell>
        <mxCell id="77" value="Status" style="shape=internalStorage;whiteSpace=wrap;html=1;backgroundOutline=1;" parent="1" vertex="1">
          <mxGeometry x="245" y="490.62" width="80" height="29.38" as="geometry" />
        </mxCell>
        <mxCell id="pMU-Be9IyisstLN4BQNU-83" value="pushTxMsg" style="rounded=0;whiteSpace=wrap;html=1;" vertex="1" parent="1">
          <mxGeometry x="505" y="720" width="90" height="40" as="geometry" />
        </mxCell>
        <mxCell id="pMU-Be9IyisstLN4BQNU-85" style="edgeStyle=orthogonalEdgeStyle;rounded=0;orthogonalLoop=1;jettySize=auto;html=1;entryX=0.5;entryY=0;entryDx=0;entryDy=0;" edge="1" parent="1" source="pMU-Be9IyisstLN4BQNU-84" target="pMU-Be9IyisstLN4BQNU-83">
          <mxGeometry relative="1" as="geometry" />
        </mxCell>
        <mxCell id="pMU-Be9IyisstLN4BQNU-84" value="Encode" style="rounded=0;whiteSpace=wrap;html=1;" vertex="1" parent="1">
          <mxGeometry x="505" y="540" width="90" height="40" as="geometry" />
        </mxCell>
        <mxCell id="pMU-Be9IyisstLN4BQNU-86" value="Decode" style="rounded=0;whiteSpace=wrap;html=1;" vertex="1" parent="1">
          <mxGeometry x="240" y="550" width="90" height="40" as="geometry" />
        </mxCell>
      </root>
    </mxGraphModel>
  </diagram>
</mxfile>
